# xmcd
#
# Track frame offsets:
#	150
#	14171
#	26821
#	43036
#	51918
#	62420
#	73652
#	89171
#	98166
#	111621
#	126047
#	139345
#	146230
#
# Disc length: 2114 seconds
#
# Revision: 0
# Processed by: cddbd v1.5.2PL0 Copyright (c) Steve Scherf et al.
# Submitted via: dBpowerAMP V4.0
#
DISCID=d008400d
DTITLE=Bill Barwick - Cowboy Bill and Other Stories
DYEAR=2006
DGENRE=Country
TTITLE0=Cowboy Standard Time
TTITLE1=When Cowboy's Didn't Dance
TTITLE2=Smilin' Jack
TTITLE3=You Gotta  Have A Mustache
TTITLE4=Just Doin' My Job
TTITLE5=Tennessee Flat Top Box
TTITLE6=Wagon Tongue
TTITLE7=Cowboy Moon
TTITLE8=I Ride An Old Paint
TTITLE9=Cowboy Bill
TTITLE10=Last Cowboy Song
TTITLE11=Mrs. Buffalow's Biscits
TTITLE12=Yarmouth Country Lady (first song 1974) unlisted
EXTD=
EXTT0=
EXTT1=
EXTT2=
EXTT3=
EXTT4=
EXTT5=
EXTT6=
EXTT7=
EXTT8=
EXTT9=
EXTT10=
EXTT11=
EXTT12=
PLAYORDER=
